<?xml version="1.0" encoding="UTF-8"?>
<svg xmlns="http://www.w3.org/2000/svg" xmlns:xlink="http://www.w3.org/1999/xlink" width="16px" height="16px" viewBox="0 0 16 16" version="1.1">
<g id="surface1">
<path style=" stroke:none;fill-rule:nonzero;fill:rgb(100%,100%,100%);fill-opacity:1;" d="M 11.394531 1.695312 L 11.046875 1.695312 C 11 1.695312 10.953125 1.683594 10.910156 1.65625 C 10.871094 1.628906 10.839844 1.589844 10.824219 1.542969 C 10.730469 1.304688 10.566406 1.097656 10.355469 0.949219 C 10.140625 0.804688 9.890625 0.726562 9.632812 0.726562 L 6.367188 0.726562 C 6.109375 0.726562 5.859375 0.804688 5.644531 0.949219 C 5.433594 1.097656 5.269531 1.304688 5.175781 1.542969 C 5.160156 1.589844 5.128906 1.628906 5.089844 1.65625 C 5.046875 1.683594 5 1.695312 4.953125 1.695312 L 4.605469 1.695312 C 4.089844 1.695312 3.597656 1.902344 3.234375 2.265625 C 2.871094 2.628906 2.667969 3.121094 2.667969 3.636719 L 2.667969 13.332031 C 2.667969 13.847656 2.871094 14.339844 3.234375 14.703125 C 3.597656 15.070312 4.089844 15.273438 4.605469 15.273438 L 11.394531 15.273438 C 11.910156 15.273438 12.402344 15.070312 12.765625 14.703125 C 13.128906 14.339844 13.332031 13.847656 13.332031 13.332031 L 13.332031 3.636719 C 13.332031 3.121094 13.128906 2.628906 12.765625 2.265625 C 12.402344 1.902344 11.910156 1.695312 11.394531 1.695312 Z M 9.933594 3.636719 L 6.066406 3.636719 C 5.9375 3.636719 5.8125 3.585938 5.722656 3.496094 C 5.628906 3.402344 5.578125 3.28125 5.578125 3.152344 C 5.578125 3.023438 5.628906 2.898438 5.722656 2.808594 C 5.8125 2.71875 5.9375 2.667969 6.066406 2.667969 L 9.933594 2.667969 C 10.0625 2.667969 10.1875 2.71875 10.277344 2.808594 C 10.371094 2.898438 10.421875 3.023438 10.421875 3.152344 C 10.421875 3.28125 10.371094 3.402344 10.277344 3.496094 C 10.1875 3.585938 10.0625 3.636719 9.933594 3.636719 Z M 9.933594 3.636719 "/>
</g>
</svg>
